{"title":"The Frankenstein Chronicles S01 1080p BluRay HEVC DD5.1 x265","uid":15962349,"size":5004881150,"categoryP":"video","categoryS":"hd___tv_shows","magnet":"?xt=urn:btih:c247862a4c46562f869f16aad890e26cb098e719&amp;dn=The+Frankenstein+Chronicles+S01+1080p+BluRay+HEVC+DD5.1+x265&amp;tr=udp%3A%2F%2Ftracker.leechers-paradise.org%3A6969&amp;tr=udp%3A%2F%2Fzer0day.ch%3A1337&amp;tr=udp%3A%2F%2Fopen.demonii.com%3A1337&amp;tr=udp%3A%2F%2Ftracker.coppersurfer.tk%3A6969&amp;tr=udp%3A%2F%2Fexodus.desync.com%3A6969","seeders":16,"leechers":11,"uploader":"nayhtut","files":12,"time":1475682539,"description":"[Screenshots Gallery Link]\r\n\r\n\r\n[https://postimg.org/gallery/euflclrw]\r\n\r\n\r\nSource:The Frankenstein Chronicles S01 1080p BluRay x264-SHORTBREHD(19.68 GB)\r\n\r\n\r\nContains:  The Frankenstein Chronicles Season One Episode 01 to 06\r\n\r\nFormat                                   : Matroska\r\nFormat version                           : Version 4 / Version 2\r\nFile size                                : 4.66 GiB\r\nDuration                                 : Various\r\nOverall bit rate                         : 2 343 Kbps\r\nWriting application                      : Lavf57.25.100\r\nWriting library                          : Lavf57.25.100\r\n\r\nVideo\r\n\r\nID                                       : 1\r\nFormat                                   : V_MPEGH/ISO/HEVC\r\nCodec ID                                 : V_MPEGH/ISO/HEVC\r\nDuration                                 : 47mn 10s\r\nBit rate                                 : 1 913 Kbps\r\nWidth                                    : 1 920 pixels\r\nHeight                                   : 1 080 pixels\r\nDisplay aspect ratio                     : 16:9\r\nFrame rate                               : 25.000 fps\r\nBits/(Pixel*Frame)                       : 0.037\r\nStream size                              : 645 MiB (82%)\r\nWriting library                          : Lavc57.48.101 libx265\r\nDefault                                  : Yes\r\nForced                                   : No\r\nDURATION                                 : 00:47:09.971000000\r\n\r\nAudio\r\n\r\nID                                       : 2\r\nFormat                                   : AC-3\r\nFormat/Info                              : Audio Coding 3\r\nMode extension                           : CM (complete main)\r\nFormat settings, Endianness              : Big\r\nCodec ID                                 : A_AC3\r\nDuration                                 : 47mn 9s\r\nBit rate mode                            : Constant\r\nBit rate                                 : 384 Kbps\r\nChannel(s)                               : 6 channels\r\nChannel positions                        : Front: L C R, Side: L R, LFE\r\nSampling rate                            : 48.0 KHz\r\nBit depth                                : 16 bits\r\nCompression mode                         : Lossy\r\nStream size                              : 130 MiB (16%)\r\nWriting library                          : Lavc57.24.102 ac3\r\nLanguage                                 : English\r\nDefault                                  : Yes\r\nForced                                   : No\r\nDURATION                                 : 00:47:09.983000000","torrent":{"xt":"urn:btih:c247862a4c46562f869f16aad890e26cb098e719","amp;dn":"The+Frankenstein+Chronicles+S01+1080p+BluRay+HEVC+DD5.1+x265","amp;tr":["udp%3A%2F%2Ftracker.leechers-paradise.org%3A6969","udp%3A%2F%2Fzer0day.ch%3A1337","udp%3A%2F%2Fopen.demonii.com%3A1337","udp%3A%2F%2Ftracker.coppersurfer.tk%3A6969","udp%3A%2F%2Fexodus.desync.com%3A6969"],"infoHash":"c247862a4c46562f869f16aad890e26cb098e719","infoHashBuffer":{"type":"Buffer","data":[194,71,134,42,76,70,86,47,134,159,22,170,216,144,226,108,176,152,231,25]},"announce":[],"urlList":[]}}